<svg width="142" height="47" viewBox="0 0 142 47" fill="none" xmlns="http://www.w3.org/2000/svg">
<g clip-path="url(#clip0_2010_366)">
<path d="M11.9224 46.1737C8.43459 46.1737 6.69069 46.1737 5.3053 45.6C3.45812 44.8348 1.99054 43.3672 1.2254 41.5201C0.65155 40.1347 0.65155 38.3796 0.65155 34.8694C0.65155 27.4638 0.65155 18.3504 0.65155 11.2979C0.65155 7.79199 0.65155 6.03907 1.22539 4.65369C1.99052 2.80653 3.45808 1.33897 5.30524 0.573841C6.69062 0 8.43462 0 11.9227 0C37.4123 0 99.6803 0 130.726 0C134.216 0 135.961 0 137.346 0.573841C139.194 1.33897 140.661 2.80653 141.426 4.65369C142 6.03907 142 7.79327 142 11.3017C142 18.8251 142 27.877 142 34.8729C142 38.3806 142 40.1345 141.426 41.5199C140.661 43.3671 139.194 44.8346 137.346 45.5998C135.961 46.1736 134.216 46.1735 130.724 46.1735C99.636 46.1729 37.4025 46.1735 11.9224 46.1737Z" fill="#2E3192"/>
<path d="M11.3896 45.2315C8.40041 45.2315 6.90582 45.2315 5.71463 44.749C4.05984 44.0788 2.74741 42.7664 2.07714 41.1115C1.59467 39.9205 1.59467 38.4175 1.59467 35.4119C1.59467 27.7875 1.59467 17.9711 1.59467 10.7653C1.59467 7.75742 1.59467 6.25348 2.07714 5.0623C2.74739 3.40752 4.0598 2.09511 5.71459 1.42485C6.90576 0.942383 8.40015 0.942383 11.389 0.942383C35.9809 0.942383 100.55 0.942383 131.244 0.942383C134.246 0.942383 135.748 0.942383 136.939 1.42485C138.593 2.09511 139.906 3.40752 140.576 5.0623C141.059 6.25348 141.059 7.75828 141.059 10.7679C141.059 18.5342 141.059 28.2666 141.059 35.4064C141.059 38.4157 141.059 39.9203 140.576 41.1115C139.906 42.7663 138.593 44.0786 136.939 44.7489C135.748 45.2314 134.246 45.2313 131.245 45.2313C100.506 45.2306 35.9731 45.2312 11.3896 45.2315Z" fill="white"/>
<path d="M51.5808 13.7236C51.5808 14.4949 51.3884 15.1697 50.9073 15.6518C50.33 16.2302 49.6564 16.5194 48.7904 16.5194C47.9244 16.5194 47.2509 16.2302 46.6736 15.6518C46.0963 15.0733 45.8076 14.3985 45.8076 13.5308C45.8076 12.6632 46.0963 11.9883 46.6736 11.4099C47.2509 10.8314 47.9244 10.5422 48.7904 10.5422C49.1753 10.5422 49.5602 10.6386 49.9451 10.8314C50.33 11.0243 50.6186 11.2171 50.8111 11.5063L50.33 11.9883C49.9451 11.5063 49.464 11.3135 48.7904 11.3135C48.2131 11.3135 47.6358 11.5063 47.2509 11.9883C46.7698 12.3739 46.5773 12.9524 46.5773 13.6272C46.5773 14.3021 46.7698 14.8805 47.2509 15.2661C47.732 15.6518 48.2131 15.941 48.7904 15.941C49.464 15.941 49.9451 15.7482 50.4262 15.2661C50.7148 14.9769 50.9073 14.5913 50.9073 14.1093H48.7904V13.338H51.5808V13.7236ZM56.007 11.3135H53.409V13.1452H55.8146V13.82H53.409V15.6518H56.007V16.423H52.6393V10.6386H56.007V11.3135ZM59.1823 16.423H58.4125V11.3135H56.7768V10.6386H60.818V11.3135H59.1823V16.423ZM63.6084 16.423V10.6386H64.3782V16.423H63.6084ZM67.6498 16.423H66.88V11.3135H65.2442V10.6386H69.1892V11.3135H67.5536V16.423H67.6498ZM76.7907 15.6518C76.2134 16.2302 75.5398 16.5194 74.6738 16.5194C73.8078 16.5194 73.1344 16.2302 72.557 15.6518C71.9796 15.0733 71.691 14.3985 71.691 13.5308C71.691 12.6632 71.9796 11.9883 72.557 11.4099C73.1344 10.8314 73.8078 10.5422 74.6738 10.5422C75.5398 10.5422 76.2134 10.8314 76.7907 11.4099C77.368 11.9883 77.6567 12.6632 77.6567 13.5308C77.6567 14.3985 77.368 15.0733 76.7907 15.6518ZM73.1344 15.1697C73.5192 15.5554 74.0966 15.8446 74.6738 15.8446C75.2512 15.8446 75.8285 15.6518 76.2134 15.1697C76.5983 14.7841 76.887 14.2057 76.887 13.5308C76.887 12.856 76.6945 12.2775 76.2134 11.8919C75.8285 11.5063 75.2512 11.2171 74.6738 11.2171C74.0966 11.2171 73.5192 11.4099 73.1344 11.8919C72.7494 12.2775 72.4608 12.856 72.4608 13.5308C72.4608 14.2057 72.6532 14.7841 73.1344 15.1697ZM78.7152 16.423V10.6386H79.5811L82.3716 15.1697V10.6386H83.1413V16.423H82.3716L79.3887 11.6991V16.423H78.7152Z" fill="#2E3192" stroke="#2E3192" stroke-width="0.256871" stroke-miterlimit="10"/>
<path d="M71.5 24.9083C69.1908 24.9083 67.3626 26.6436 67.3626 29.0537C67.3626 31.3674 69.1908 33.1992 71.5 33.1992C73.8094 33.1992 75.6376 31.4638 75.6376 29.0537C75.6376 26.5472 73.8094 24.9083 71.5 24.9083ZM71.5 31.4638C70.2492 31.4638 69.1908 30.4034 69.1908 28.9573C69.1908 27.5112 70.2492 26.4508 71.5 26.4508C72.751 26.4508 73.8094 27.4148 73.8094 28.9573C73.8094 30.4034 72.751 31.4638 71.5 31.4638ZM62.5516 24.9083C60.2422 24.9083 58.414 26.6436 58.414 29.0537C58.414 31.3674 60.2422 33.1992 62.5516 33.1992C64.8608 33.1992 66.689 31.4638 66.689 29.0537C66.689 26.5472 64.8608 24.9083 62.5516 24.9083ZM62.5516 31.4638C61.3006 31.4638 60.2422 30.4034 60.2422 28.9573C60.2422 27.5112 61.3006 26.4508 62.5516 26.4508C63.8024 26.4508 64.8608 27.4148 64.8608 28.9573C64.8608 30.4034 63.8024 31.4638 62.5516 31.4638ZM51.871 26.1616V27.8968H56.0085C55.9123 28.8609 55.5274 29.6321 55.0463 30.1141C54.469 30.6926 53.5068 31.3674 51.871 31.3674C49.273 31.3674 47.3486 29.3429 47.3486 26.74C47.3486 24.137 49.3692 22.1125 51.871 22.1125C53.2181 22.1125 54.2765 22.6909 55.0463 23.3658L56.2972 22.1125C55.2388 21.1484 53.8916 20.3772 51.9672 20.3772C48.5033 20.3772 45.5204 23.2694 45.5204 26.74C45.5204 30.2106 48.5033 33.1028 51.9672 33.1028C53.8916 33.1028 55.2388 32.5243 56.3934 31.271C57.548 30.1141 57.9329 28.4752 57.9329 27.222C57.9329 26.8364 57.9329 26.4508 57.8367 26.1616H51.871ZM95.5557 27.5112C95.1703 26.5472 94.2082 24.9083 92.0913 24.9083C89.9745 24.9083 88.2425 26.5472 88.2425 29.0537C88.2425 31.3674 89.9745 33.1992 92.2838 33.1992C94.1119 33.1992 95.2664 32.0423 95.6518 31.3674L94.3045 30.4034C93.8233 31.0782 93.246 31.5602 92.2838 31.5602C91.3215 31.5602 90.7443 31.1746 90.2631 30.307L95.7479 27.9932L95.5557 27.5112ZM89.9745 28.8609C89.9745 27.3184 91.2253 26.4508 92.0913 26.4508C92.7649 26.4508 93.4385 26.8364 93.6309 27.3184L89.9745 28.8609ZM85.4521 32.8135H87.2803V20.7628H85.4521V32.8135ZM82.5655 25.776C82.0844 25.2939 81.3146 24.8119 80.3524 24.8119C78.3318 24.8119 76.4073 26.6436 76.4073 28.9573C76.4073 31.271 78.2355 33.0063 80.3524 33.0063C81.3146 33.0063 82.0844 32.5243 82.4693 32.0423H82.5655V32.6207C82.5655 34.1632 81.6995 35.0309 80.3524 35.0309C79.294 35.0309 78.5242 34.2596 78.3318 33.5848L76.7922 34.2596C77.2733 35.3201 78.428 36.6698 80.4486 36.6698C82.5655 36.6698 84.2975 35.4165 84.2975 32.4279V25.1011H82.5655V25.776ZM80.4486 31.4638C79.1978 31.4638 78.1393 30.4034 78.1393 28.9573C78.1393 27.5112 79.1978 26.4508 80.4486 26.4508C81.6995 26.4508 82.6617 27.5112 82.6617 28.9573C82.6617 30.4034 81.6995 31.4638 80.4486 31.4638ZM103.926 20.7628H99.5964V32.8135H101.424V28.2824H103.926C105.948 28.2824 107.872 26.8364 107.872 24.5227C107.872 22.2089 105.948 20.7628 103.926 20.7628ZM104.022 26.5472H101.424V22.4017H104.022C105.37 22.4017 106.14 23.5586 106.14 24.4263C106.044 25.4867 105.274 26.5472 104.022 26.5472ZM115.088 24.8119C113.741 24.8119 112.394 25.3903 111.913 26.6436L113.548 27.3184C113.934 26.6436 114.51 26.4508 115.184 26.4508C116.146 26.4508 117.012 27.0292 117.108 27.9932V28.0896C116.82 27.8968 116.05 27.6076 115.28 27.6076C113.548 27.6076 111.816 28.5716 111.816 30.307C111.816 31.9459 113.26 33.0063 114.8 33.0063C116.05 33.0063 116.628 32.4279 117.108 31.8495H117.205V32.8135H118.937V28.186C118.744 26.0652 117.108 24.8119 115.088 24.8119ZM114.896 31.4638C114.318 31.4638 113.452 31.1746 113.452 30.4034C113.452 29.4393 114.511 29.1501 115.377 29.1501C116.146 29.1501 116.532 29.3429 117.012 29.5357C116.82 30.6926 115.858 31.4638 114.896 31.4638ZM124.999 25.1011L122.978 30.307H122.882L120.766 25.1011H118.84L122.016 32.4279L120.188 36.477H122.016L126.924 25.1011H124.999ZM108.834 32.8135H110.662V20.7628H108.834V32.8135Z" fill="#2E3192"/>
<path d="M15.9763 11.1213C15.6876 11.4106 15.5914 11.8926 15.5914 12.471V33.7768C15.5914 34.3552 15.7838 34.8373 16.0725 35.1265L16.1687 35.2229L28.1001 23.2685V23.0757L15.9763 11.1213Z" fill="#00A0FF"/>
<path d="M31.9528 27.3178L28.0078 23.3652V23.076L31.9528 19.1233L32.0491 19.2198L36.7639 21.9191C38.111 22.6904 38.111 23.9437 36.7639 24.7148L31.9528 27.3178Z" fill="url(#paint0_linear_2010_366)"/>
<path d="M32.0478 27.2209L28.0065 23.1719L15.9789 35.2226C16.46 35.7047 17.1335 35.7047 17.9995 35.3191L32.0478 27.2209Z" fill="url(#paint1_linear_2010_366)"/>
<path d="M32.0478 19.1223L17.9995 11.1206C17.1335 10.6386 16.46 10.735 15.9789 11.217L28.0065 23.1714L32.0478 19.1223Z" fill="url(#paint2_linear_2010_366)"/>
<path opacity="0.2" d="M31.9515 27.1238L17.9995 35.0291C17.2298 35.5111 16.5562 35.4147 16.0751 35.0291L15.9789 35.1255L16.0751 35.2219C16.5562 35.6075 17.2298 35.7039 17.9995 35.2219L31.9515 27.1238Z" fill="white"/>
<path opacity="0.2" d="M15.9763 35.0298C15.6876 34.7406 15.5914 34.2586 15.5914 33.6801V33.7765C15.5914 34.355 15.7838 34.837 16.0725 35.1262V35.0298H15.9763ZM36.76 24.4252L31.949 27.1245L32.0452 27.2209L36.76 24.5216C37.4336 24.136 37.7222 23.654 37.7222 23.1719C37.7222 23.654 37.3374 24.0396 36.76 24.4252Z" fill="white"/>
<path opacity="0.2" d="M17.9969 11.2176L36.76 21.9186C37.3374 22.3043 37.7222 22.6899 37.7222 23.1719C37.7222 22.6899 37.4336 22.2079 36.76 21.8222L17.9969 11.1212C16.6498 10.3499 15.5914 10.9284 15.5914 12.4708V12.5672C15.5914 11.1212 16.6498 10.4464 17.9969 11.2176Z" fill="#CAD9FF"/>
</g>
<defs>
<linearGradient id="paint0_linear_2010_366" x1="38.5286" y1="23.1733" x2="15.246" y2="23.1733" gradientUnits="userSpaceOnUse">
<stop stop-color="#FFE000"/>
<stop offset="0.409" stop-color="#FFBD00"/>
<stop offset="0.775" stop-color="#FFA500"/>
<stop offset="1" stop-color="#FF9C00"/>
</linearGradient>
<linearGradient id="paint1_linear_2010_366" x1="29.8607" y1="25.3854" x2="7.92069" y2="47.2833" gradientUnits="userSpaceOnUse">
<stop stop-color="#FF3A44"/>
<stop offset="1" stop-color="#C31162"/>
</linearGradient>
<linearGradient id="paint2_linear_2010_366" x1="12.9931" y1="4.05986" x2="22.7908" y2="13.8387" gradientUnits="userSpaceOnUse">
<stop stop-color="#32A071"/>
<stop offset="0.069" stop-color="#2DA771"/>
<stop offset="0.476" stop-color="#15CF74"/>
<stop offset="0.801" stop-color="#06E775"/>
<stop offset="1" stop-color="#00F076"/>
</linearGradient>
<clipPath id="clip0_2010_366">
<rect width="141.348" height="46.1738" fill="white" transform="translate(0.65155)"/>
</clipPath>
</defs>
</svg>
