<svg width="18" height="18" viewBox="0 0 18 18" fill="none" xmlns="http://www.w3.org/2000/svg">
<g clip-path="url(#clip0_2052_8068)">
<path d="M13.1275 0H4.87243C2.18573 0 0 2.18573 0 4.87243V13.1277C0 15.8142 2.18573 18 4.87243 18H13.1277C15.8142 18 18 15.8142 18 13.1277V4.87243C18 2.18573 15.8142 0 13.1275 0V0ZM16.9447 13.1277C16.9447 15.2324 15.2324 16.9447 13.1275 16.9447H4.87243C2.76759 16.9447 1.05523 15.2324 1.05523 13.1277V4.87243C1.05523 2.76759 2.76759 1.05523 4.87243 1.05523H13.1277C15.2324 1.05523 16.9447 2.76759 16.9447 4.87243V13.1277Z" fill="white"/>
<path d="M8.99997 4.07812C6.28608 4.07812 4.07825 6.28596 4.07825 8.99985C4.07825 11.7137 6.28608 13.9216 8.99997 13.9216C11.7139 13.9216 13.9217 11.7137 13.9217 8.99985C13.9217 6.28596 11.7139 4.07812 8.99997 4.07812ZM8.99997 12.8663C6.86808 12.8663 5.13348 11.1319 5.13348 8.99985C5.13348 6.86796 6.86808 5.13336 8.99997 5.13336C11.132 5.13336 12.8665 6.86796 12.8665 8.99985C12.8665 11.1319 11.132 12.8663 8.99997 12.8663Z" fill="white"/>
<path d="M14.0394 2.33008C13.2374 2.33008 12.5851 2.98253 12.5851 3.78439C12.5851 4.58639 13.2374 5.23884 14.0394 5.23884C14.8414 5.23884 15.4938 4.58639 15.4938 3.78439C15.4938 2.98239 14.8414 2.33008 14.0394 2.33008ZM14.0394 4.18347C13.8194 4.18347 13.6403 4.00439 13.6403 3.78439C13.6403 3.56425 13.8194 3.38531 14.0394 3.38531C14.2595 3.38531 14.4386 3.56425 14.4386 3.78439C14.4386 4.00439 14.2595 4.18347 14.0394 4.18347Z" fill="white"/>
</g>
<defs>
<clipPath id="clip0_2052_8068">
<rect width="18" height="18" fill="white"/>
</clipPath>
</defs>
</svg>
